<?xml version="1.0" encoding="utf-8"?>
<!-- Generator: Adobe Illustrator 24.1.1, SVG Export Plug-In . SVG Version: 6.00 Build 0)  -->
<svg version="1.1" id="Слой_1" xmlns="http://www.w3.org/2000/svg" xmlns:xlink="http://www.w3.org/1999/xlink" x="0px" y="0px"
	 viewBox="0 0 228.8 106.1" style="enable-background:new 0 0 228.8 106.1;" xml:space="preserve">
<style type="text/css">
	.st0{fill:#FFFFFF;}
	.st1{clip-path:url(#SVGID_2_);fill:#EBB938;}
	.st2{fill:#EBB938;}
</style>
<g>
	<path class="st0" d="M21.8,27.7H8.4v49.2l5.6,2.8V50.8l2.1-1.6l0.2,43L0,83.2V22.7h21.8V27.7z M63.9,27.7h13.4v49.2L44.8,95.4
		l0,10.7l41-22.9V22.7H63.9V27.7z M17,92.2l2.1,1.8l0-47L17,48.7L17,92.2z M19.8,94l2.1,1.4V45.3l-2.1,1.5V94z M22.6,45.3v50.1
		l9.8,6.2V6.4l-2.7,2.7v43.7L22.6,45.3z M36.8,3.6L34,5.7v96.9l2.8,1.4V3.6z M38.2,104.4l2.8,1.7V0l-2.8,2.1V104.4z M60.2,12.2
		L44.8,0v95.4l15.3-8.7L60.2,12.2z M64.3,45.9v38.4l7-4V51L64.3,45.9z M28.3,10.6l-2.8,2.2v31.8l2.8,1.5V10.6z"/>
	<g>
		<defs>
			<rect id="SVGID_1_" x="42.5" width="44.9" height="106.1"/>
		</defs>
		<clipPath id="SVGID_2_">
			<use xlink:href="#SVGID_1_"  style="overflow:visible;"/>
		</clipPath>
		<path class="st1" d="M21.8,27.7H8.4v49.2l5.6,2.8V50.8l2.1-1.6l0.2,43L0,83.2V22.7h21.8V27.7z M63.9,27.7h13.4v49.2L44.8,95.4
			l0,10.7l41-22.9V22.7H63.9V27.7z M17,92.2l2.1,1.8l0-47L17,48.7L17,92.2z M19.8,94l2.1,1.4V45.3l-2.1,1.5V94z M22.6,45.3v50.1
			l9.8,6.2V6.4l-2.7,2.7v43.7L22.6,45.3z M36.8,3.6L34,5.7v96.9l2.8,1.4V3.6z M38.2,104.4l2.8,1.7V0l-2.8,2.1V104.4z M60.2,12.2
			L44.8,0v95.4l15.3-8.7L60.2,12.2z M64.3,45.9v38.4l7-4V51L64.3,45.9z M28.3,10.6l-2.8,2.2v31.8l2.8,1.5V10.6z"/>
	</g>
</g>
<g>
	<path class="st0" d="M94.3,26.9h7.1l8.9,22.5l8.9-22.5h7.1l-14.3,34.2h-3.5L94.3,26.9z"/>
	<path class="st0" d="M136.7,31c3.3-3.3,7.6-4.9,12.9-4.9c5.2,0,9.5,1.6,12.9,4.9c3.3,3.3,5,7.5,5,12.6s-1.7,9.3-5,12.6
		c-3.3,3.3-7.6,4.9-12.9,4.9c-5.2,0-9.5-1.6-12.9-4.9c-3.3-3.3-5-7.4-5-12.6S133.4,34.3,136.7,31z M141.6,51.9
		c2.1,2.2,4.7,3.2,8,3.2c3.3,0,6-1.1,8-3.2c2.1-2.2,3.1-4.9,3.1-8.3c0-3.4-1-6.2-3.1-8.3c-2.1-2.2-4.8-3.3-8-3.3
		c-3.2,0-5.9,1.1-8,3.3c-2.1,2.2-3.1,4.9-3.1,8.3C138.5,47,139.5,49.8,141.6,51.9z"/>
	<path class="st0" d="M198.3,30l-3.4,4.5c-1.4-1.9-3.3-2.9-5.5-2.9c-1.6,0-2.8,0.4-3.5,1.2c-0.7,0.8-1.1,1.7-1.1,2.7
		c0,0.9,0.4,1.7,1.1,2.3c0.5,0.5,1.9,1.1,4,1.9c3.3,1.1,5.6,2.3,6.8,3.4c1.9,1.7,2.9,4,2.9,7c0,3.3-1.1,5.9-3.2,7.9
		c-2.2,2-5,3-8.4,3c-4.8,0-8.7-2.1-11.5-6.3l4.3-4.1c0.7,1.5,1.8,2.6,3.1,3.4c1.3,0.7,2.6,1.1,4,1.1c1.5,0,2.7-0.4,3.7-1.3
		c1-0.9,1.5-2,1.5-3.3c0-1.2-0.4-2.2-1.3-3c-0.8-0.7-2.5-1.6-5.2-2.5c-2.5-0.8-4.3-1.8-5.6-2.9c-1.8-1.5-2.7-3.6-2.7-6.2
		c0-2.7,0.9-5,2.8-6.9c1.8-1.9,4.5-2.9,8-2.9C192.6,26.1,195.8,27.4,198.3,30z"/>
	<path class="st0" d="M228.8,26.9v5.6h-12V40h11.5v5.6h-11.5v9.1h12v5.6h-18.6V26.9H228.8z"/>
</g>
<g>
	<g>
		<path class="st2" d="M104.6,77.1V79c-0.6,0.3-1.3,0.5-2,0.5c-1.2,0-2.2-0.4-3-1.2c-0.9-0.9-1.3-1.9-1.3-3.2c0-1.3,0.4-2.4,1.3-3.2
			c0.8-0.7,1.8-1.1,3-1.1c0.7,0,1.4,0.2,2,0.5v1.9c-0.5-0.6-1.2-0.9-2-0.9c-0.8,0-1.5,0.3-2,0.8c-0.5,0.6-0.8,1.2-0.8,2
			c0,0.9,0.3,1.6,0.8,2.1s1.2,0.8,2,0.8C103.5,78,104.1,77.7,104.6,77.1z"/>
		<path class="st2" d="M110.7,72c0.8-0.8,1.9-1.2,3.2-1.2s2.4,0.4,3.2,1.2c0.8,0.8,1.2,1.8,1.2,3.1c0,1.3-0.4,2.3-1.2,3.1
			c-0.8,0.8-1.9,1.2-3.2,1.2s-2.4-0.4-3.2-1.2s-1.2-1.8-1.2-3.1C109.5,73.9,109.9,72.8,110.7,72z M111.9,77.2c0.5,0.5,1.2,0.8,2,0.8
			s1.5-0.3,2-0.8c0.5-0.5,0.8-1.2,0.8-2.1c0-0.8-0.3-1.5-0.8-2.1s-1.2-0.8-2-0.8c-0.8,0-1.5,0.3-2,0.8s-0.8,1.2-0.8,2.1
			C111.1,76,111.4,76.6,111.9,77.2z"/>
		<path class="st2" d="M125.1,79.2h-1.6v-8.5h1.1l5,5.8V71h1.6v8.4h-1.1l-5-5.8V79.2z"/>
		<path class="st2" d="M141.8,71.8l-0.8,1.1c-0.4-0.5-0.8-0.7-1.4-0.7c-0.4,0-0.7,0.1-0.9,0.3c-0.2,0.2-0.3,0.4-0.3,0.7
			c0,0.2,0.1,0.4,0.3,0.6c0.1,0.1,0.5,0.3,1,0.5c0.8,0.3,1.4,0.6,1.7,0.8c0.5,0.4,0.7,1,0.7,1.7c0,0.8-0.3,1.5-0.8,2
			c-0.5,0.5-1.2,0.8-2.1,0.8c-1.2,0-2.1-0.5-2.9-1.6l1.1-1c0.2,0.4,0.4,0.6,0.8,0.8s0.6,0.3,1,0.3c0.4,0,0.7-0.1,0.9-0.3
			s0.4-0.5,0.4-0.8c0-0.3-0.1-0.5-0.3-0.7c-0.2-0.2-0.6-0.4-1.3-0.6c-0.6-0.2-1.1-0.4-1.4-0.7c-0.4-0.4-0.7-0.9-0.7-1.5
			c0-0.7,0.2-1.2,0.7-1.7c0.5-0.5,1.1-0.7,2-0.7C140.3,70.8,141.1,71.1,141.8,71.8z"/>
		<path class="st2" d="M151.6,72.4h-1.9v6.9h-1.6v-6.9h-1.9V71h5.3V72.4z"/>
		<path class="st2" d="M156.4,71h2.4c0.9,0,1.6,0.2,2.1,0.6c0.5,0.5,0.8,1.1,0.8,1.9c0,0.9-0.3,1.5-1,1.9c-0.2,0.2-0.5,0.3-0.9,0.4
			l2.6,3.5h-2l-2.2-3.3H158v3.3h-1.6V71z M158,72.3v2.5h0.5c0.1,0,0.3,0,0.4,0c0.1,0,0.3-0.1,0.5-0.1c0.2-0.1,0.4-0.2,0.5-0.4
			c0.1-0.2,0.2-0.4,0.2-0.7c0-0.3-0.1-0.5-0.2-0.7s-0.3-0.3-0.5-0.4s-0.4-0.1-0.5-0.1c-0.1,0-0.3,0-0.4,0H158z"/>
		<path class="st2" d="M167.2,71h1.6v5.2c0,0.5,0.1,0.9,0.4,1.2c0.3,0.4,0.8,0.6,1.3,0.6c0.6,0,1-0.2,1.3-0.6
			c0.3-0.3,0.4-0.7,0.4-1.2V71h1.6V76c0,0.9-0.2,1.7-0.6,2.2c-0.3,0.4-0.7,0.7-1.2,0.9s-1,0.3-1.5,0.3s-1.1-0.1-1.5-0.3
			s-0.9-0.5-1.2-0.9c-0.4-0.5-0.6-1.3-0.6-2.2V71z"/>
		<path class="st2" d="M185.5,77.1V79c-0.6,0.3-1.3,0.5-2,0.5c-1.2,0-2.2-0.4-3-1.2c-0.9-0.9-1.3-1.9-1.3-3.2c0-1.3,0.4-2.4,1.3-3.2
			c0.8-0.7,1.8-1.1,3-1.1c0.7,0,1.4,0.2,2,0.5v1.9c-0.5-0.6-1.2-0.9-2-0.9c-0.8,0-1.5,0.3-2,0.8c-0.5,0.6-0.8,1.2-0.8,2
			c0,0.9,0.3,1.6,0.8,2.1s1.2,0.8,2,0.8C184.3,78,184.9,77.7,185.5,77.1z"/>
		<path class="st2" d="M195.1,72.4h-1.9v6.9h-1.6v-6.9h-1.9V71h5.3V72.4z"/>
		<path class="st2" d="M199.9,71h1.6v8.3h-1.6V71z"/>
		<path class="st2" d="M207.9,72c0.8-0.8,1.9-1.2,3.2-1.2s2.4,0.4,3.2,1.2c0.8,0.8,1.2,1.8,1.2,3.1c0,1.3-0.4,2.3-1.2,3.1
			c-0.8,0.8-1.9,1.2-3.2,1.2s-2.4-0.4-3.2-1.2s-1.2-1.8-1.2-3.1C206.7,73.9,207.1,72.8,207.9,72z M209.1,77.2c0.5,0.5,1.2,0.8,2,0.8
			s1.5-0.3,2-0.8c0.5-0.5,0.8-1.2,0.8-2.1c0-0.8-0.3-1.5-0.8-2.1s-1.2-0.8-2-0.8c-0.8,0-1.5,0.3-2,0.8s-0.8,1.2-0.8,2.1
			C208.3,76,208.6,76.6,209.1,77.2z"/>
		<path class="st2" d="M222.3,79.2h-1.6v-8.5h1.1l5,5.8V71h1.6v8.4h-1.1l-5-5.8V79.2z"/>
	</g>
</g>
</svg>
